<svg width="60" height="59" viewBox="0 0 60 59" fill="none" xmlns="http://www.w3.org/2000/svg">
<path d="M39.08 39.696V42H21.404V40.164L31.88 29.904C33.2 28.608 34.088 27.492 34.544 26.556C35.024 25.596 35.264 24.636 35.264 23.676C35.264 22.188 34.748 21.036 33.716 20.22C32.708 19.38 31.256 18.96 29.36 18.96C26.408 18.96 24.116 19.896 22.484 21.768L20.648 20.184C21.632 19.032 22.88 18.144 24.392 17.52C25.928 16.896 27.656 16.584 29.576 16.584C32.144 16.584 34.172 17.196 35.66 18.42C37.172 19.62 37.928 21.276 37.928 23.388C37.928 24.684 37.64 25.932 37.064 27.132C36.488 28.332 35.396 29.712 33.788 31.272L25.22 39.696H39.08Z" fill="#F7941E"/>
<path d="M59 29.4278C59 45.11 46.0345 57.8557 30 57.8557C13.9655 57.8557 1 45.11 1 29.4278C1 13.7456 13.9655 1 30 1C46.0345 1 59 13.7456 59 29.4278Z" stroke="#F7941E" stroke-width="2"/>
</svg>
