<svg width="60" height="59" viewBox="0 0 60 59" fill="none" xmlns="http://www.w3.org/2000/svg">
<path d="M29.44 27.6C32.08 27.744 34.084 28.464 35.452 29.76C36.844 31.032 37.54 32.7 37.54 34.764C37.54 36.204 37.192 37.488 36.496 38.616C35.8 39.72 34.768 40.596 33.4 41.244C32.032 41.892 30.364 42.216 28.396 42.216C26.572 42.216 24.844 41.928 23.212 41.352C21.604 40.752 20.308 39.96 19.324 38.976L20.584 36.924C21.424 37.788 22.54 38.496 23.932 39.048C25.324 39.576 26.812 39.84 28.396 39.84C30.46 39.84 32.056 39.396 33.184 38.508C34.312 37.596 34.876 36.348 34.876 34.764C34.876 33.204 34.312 31.98 33.184 31.092C32.056 30.204 30.352 29.76 28.072 29.76H26.272V27.852L33.256 19.104H20.368V16.8H36.568V18.636L29.44 27.6Z" fill="#F7941E"/>
<path d="M59 29.4278C59 45.11 46.0345 57.8557 30 57.8557C13.9655 57.8557 1 45.11 1 29.4278C1 13.7456 13.9655 1 30 1C46.0345 1 59 13.7456 59 29.4278Z" stroke="#F7941E" stroke-width="2"/>
</svg>
